<?xml version="1.0" encoding="UTF-8"?><svg id="a" xmlns="http://www.w3.org/2000/svg" viewBox="0 0 167.24 257.95"><defs><style>.b{fill:#fff;}.c{fill:#d9d480;}.c,.d,.e,.f{stroke:#3e3a39;stroke-linecap:round;stroke-linejoin:round;stroke-width:.85px;}.d{fill:#c08220;}.e{fill:#b47c23;}.f{fill:#ba7f21;}</style></defs><path class="b" d="M0,0V257.95H167.24V0H0ZM108.36,132.88H58.89l-24.73-42.83,24.73-42.84h49.47l24.73,42.84-24.73,42.83Z"/><path class="f" d="M155.17,106.51h-24.39l-18.83,32.61H55.29l-18.83-32.61H12.07c-2.13,0-3.85,1.72-3.85,3.85V239.97c0,4.9,3.97,8.88,8.88,8.88H150.14c4.9,0,8.88-3.97,8.88-8.88V110.36c0-2.13-1.72-3.85-3.85-3.85Z"/><path class="c" d="M110.9,144.82H56.35l-44.09-6.94v101.7c0,3.38,2.81,6.12,6.27,6.12H148.72c3.46,0,6.27-2.74,6.27-6.12v-101.7l-44.09,6.94Z"/><path class="d" d="M8.22,17.63v55.26c0,1.22,.99,2.21,2.21,2.21h24.81c.79,0,1.52-.42,1.92-1.11l18.59-32.2h55.72l18.59,32.2c.4,.69,1.13,1.11,1.92,1.11h23.56c1.22,0,2.21-.99,2.21-2.21V17.63c0-5.05-4.1-9.15-9.15-9.15H17.37c-5.05,0-9.15,4.1-9.15,9.15Z"/><polygon class="c" points="111.11 38.73 55.34 38.73 39.14 11.64 127.58 11.64 111.11 38.73"/><path class="e" d="M109.75,44.32H56.96l-26.4,45.73,26.4,45.72h52.79l26.4-45.72-26.4-45.73Zm-1.66,88.56H58.62l-24.73-42.83,24.73-42.84h49.47l24.73,42.84-24.73,42.83Z"/></svg>