<?xml version="1.0" encoding="UTF-8"?><svg id="a" xmlns="http://www.w3.org/2000/svg" viewBox="0 0 167.24 257.95"><defs><style>.b{fill:#fff;}.c{stroke-width:.28px;}.c,.d,.e,.f,.g,.h,.i{stroke-linecap:round;stroke-linejoin:round;}.c,.j,.i{fill:none;}.c,.i{stroke:#231815;}.d{fill:#d9b51a;}.d,.e,.f,.g,.h{stroke:#3e3a39;stroke-width:.85px;}.k,.e{fill:#d1af24;}.f{fill:#d9d480;}.g{fill:#dfda82;}.h{fill:#d6d12f;}.i{stroke-width:.5px;}</style></defs><path class="b" d="M0,0V257.95H167.24V0H0ZM83.49,132.42c-23.18,0-41.97-18.79-41.97-41.97s18.79-41.97,41.97-41.97,41.97,18.79,41.97,41.97-18.79,41.97-41.97,41.97Z"/><path class="e" d="M155.04,106.51h-26.51c-6.35,18.66-24.01,32.09-44.82,32.09s-38.47-13.43-44.82-32.09H11.94c-2.13,0-3.85,1.72-3.85,3.85V239.97c0,4.9,3.97,8.88,8.88,8.88H150.01c4.9,0,8.88-3.97,8.88-8.88V110.36c0-2.13-1.72-3.85-3.85-3.85Z"/><path class="d" d="M150.18,9.06H17.23c-4.93,0-8.92,3.99-8.92,8.92v54.97c0,1.19,.96,2.15,2.15,2.15h27.04c6.67-19.22,24.93-33.02,46.42-33.02s39.75,13.8,46.42,33.02h26.61c1.19,0,2.15-.96,2.15-2.15V17.98c0-4.93-3.99-8.92-8.92-8.92Z"/><path class="h" d="M149.91,13.23c-2.25,18.86-9.28,34.34-25.98,43.6h0c4.62,4.66,7.15,8.78,9.14,14.1h20.16c1.13,0,2.04-.85,2.04-1.9V20.47c0-4.09-5.36-7.24-5.36-7.24Z"/><path class="h" d="M43.82,56.14C27.79,46.79,20.05,31.63,17.51,13.14c-3.15,1.15-5.38,3.99-5.38,7.33V62.28c6.96,0,13.49,1.77,20.18,3.43l4.03,1.7c2.12-4.38,3.84-7.29,7.69-11.12l-.2-.16h0Z"/><path class="g" d="M21.28,12.59c2.46,17.63,9.73,31.9,25.21,40.65l.27,.16c9.89-9.83,23.13-15.4,36.92-15.4s27.7,6.09,37.82,16.29c-.05-.05-.08-.08-.11-.12-.03-.03-.05-.06-.07-.07-.02-.02-.02-.02,0,0,.01,.01,.04,.04,.07,.07,.05,.06,.11,.12,.11,.12,15.94-8.69,22.49-23.81,24.63-41.7H21.28Z"/><circle class="j" cx="144.08" cy="121.03" r="11.83"/><circle class="j" cx="144.08" cy="121.03" r="9.59"/><rect class="j" x="12.34" y="110.51" width="21.43" height="21.43"/><rect class="j" x="14.97" y="113.13" width="16.17" height="16.17"/><path class="f" d="M148.8,245.72H18.61c-3.46,0-6.27-2.81-6.27-6.27v-104.61c0,.48,14.5,2.99,15.56,3.17,39,6.76,77.92,5.3,116.82-1.15,.82-.14,10.34-1.3,10.34-2.02v104.61c0,3.46-2.81,6.27-6.27,6.27Z"/><g><path class="k" d="M83.49,48.55c-23.18,0-41.97,18.79-41.97,41.97s18.79,41.97,41.97,41.97,41.97-18.79,41.97-41.97-18.79-41.97-41.97-41.97Zm-44.37,41.97c0-24.5,19.86-44.37,44.37-44.37s44.37,19.87,44.37,44.37-19.87,44.37-44.37,44.37-44.37-19.86-44.37-44.37Z"/><g><circle class="i" cx="83.49" cy="90.52" r="44.37"/><circle class="c" cx="83.49" cy="90.52" r="41.97"/></g></g></svg>